{
  "accessors": [
    {
      "bufferView": 1,
      "componentType": 5126,
      "count": 65534,
      "max": [
        26.935199737548828,
        -10.005399703979492,
        83.04940032958984
      ],
      "min": [
        -51.481998443603516,
        -41.982398986816406,
        25.55769920349121
      ],
      "type": "VEC3"
    },
    {
      "bufferView": 1,
      "byteOffset": 786408,
      "componentType": 5126,
      "count": 65534,
      "max": [
        0.9172213673591614,
        1.0,
        1.0
      ],
      "min": [
        -0.9302664399147034,
        -0.8632067441940308,
        -1.0
      ],
      "type": "VEC3"
    },
    {
      "bufferView": 0,
      "componentType": 5125,
      "count": 66435,
      "type": "SCALAR"
    },
    {
      "bufferView": 1,
      "byteOffset": 1572816,
      "componentType": 5126,
      "count": 65532,
      "max": [
        27.222700119018555,
        -27.91990089416504,
        82.94439697265625
      ],
      "min": [
        -43.764801025390625,
        -83.78990173339844,
        34.135799407958984
      ],
      "type": "VEC3"
    },
    {
      "bufferView": 1,
      "byteOffset": 2359200,
      "componentType": 5126,
      "count": 65532,
      "max": [
        0.9992197751998901,
        0.6064455509185791,
        1.0
      ],
      "min": [
        -1.0,
        -1.0,
        -1.0
      ],
      "type": "VEC3"
    },
    {
      "bufferView": 0,
      "byteOffset": 265740,
      "componentType": 5125,
      "count": 66069,
      "type": "SCALAR"
    },
    {
      "bufferView": 1,
      "byteOffset": 3145584,
      "componentType": 5126,
      "count": 65532,
      "max": [
        30.435199737548828,
        -20.888599395751953,
        83.35459899902344
      ],
      "min": [
        -53.2046012878418,
        -33.544898986816406,
        27.015100479125977
      ],
      "type": "VEC3"
    },
    {
      "bufferView": 1,
      "byteOffset": 3931968,
      "componentType": 5126,
      "count": 65532,
      "max": [
        1.0,
        1.0,
        1.0
      ],
      "min": [
        -1.0,
        -0.9220619797706604,
        -1.0
      ],
      "type": "VEC3"
    },
    {
      "bufferView": 0,
      "byteOffset": 530016,
      "componentType": 5125,
      "count": 66399,
      "type": "SCALAR"
    },
    {
      "bufferView": 1,
      "byteOffset": 4718352,
      "componentType": 5126,
      "count": 23614,
      "max": [
        28.01460075378418,
        -18.076099395751953,
        82.48190307617188
      ],
      "min": [
        -53.415000915527344,
        -21.591800689697266,
        25.735300064086914
      ],
      "type": "VEC3"
    },
    {
      "bufferView": 1,
      "byteOffset": 5001720,
      "componentType": 5126,
      "count": 23614,
      "max": [
        0.8334357738494873,
        1.0,
        0.9613714814186096
      ],
      "min": [
        -0.9966692328453064,
        -0.8031708002090454,
        -0.9999608397483826
      ],
      "type": "VEC3"
    },
    {
      "bufferView": 0,
      "byteOffset": 795612,
      "componentType": 5125,
      "count": 23721,
      "type": "SCALAR"
    },
    {
      "bufferView": 1,
      "byteOffset": 5285088,
      "componentType": 5126,
      "count": 65532,
      "max": [
        95.05770111083984,
        78.57039642333984,
        67.63159942626953
      ],
      "min": [
        -92.20719909667969,
        -17.70840072631836,
        -34.72249984741211
      ],
      "type": "VEC3"
    },
    {
      "bufferView": 1,
      "byteOffset": 6071472,
      "componentType": 5126,
      "count": 65532,
      "max": [
        1.0,
        0.9996758699417114,
        0.9995139837265015
      ],
      "min": [
        -1.0,
        -0.9880361557006836,
        -0.9963431358337402
      ],
      "type": "VEC3"
    },
    {
      "bufferView": 0,
      "byteOffset": 890496,
      "componentType": 5125,
      "count": 65940,
      "type": "SCALAR"
    },
    {
      "bufferView": 1,
      "byteOffset": 6857856,
      "componentType": 5126,
      "count": 65534,
      "max": [
        91.5343017578125,
        -16.822999954223633,
        96.04930114746094
      ],
      "min": [
        -85.79460144042969,
        -70.82460021972656,
        22.221399307250977
      ],
      "type": "VEC3"
    },
    {
      "bufferView": 1,
      "byteOffset": 7644264,
      "componentType": 5126,
      "count": 65534,
      "max": [
        1.0,
        0.9999925494194031,
        0.999913215637207
      ],
      "min": [
        -1.0,
        -0.9993555545806885,
        -1.0
      ],
      "type": "VEC3"
    },
    {
      "bufferView": 0,
      "byteOffset": 1154256,
      "componentType": 5125,
      "count": 66921,
      "type": "SCALAR"
    },
    {
      "bufferView": 1,
      "byteOffset": 8430672,
      "componentType": 5126,
      "count": 65534,
      "max": [
        98.80259704589844,
        3.5416100025177,
        67.08209991455078
      ],
      "min": [
        -108.6709976196289,
        -30.10420036315918,
        22.26689910888672
      ],
      "type": "VEC3"
    },
    {
      "bufferView": 1,
      "byteOffset": 9217080,
      "componentType": 5126,
      "count": 65534,
      "max": [
        0.9999631643295288,
        1.0,
        0.9995620846748352
      ],
      "min": [
        -0.9994193315505981,
        -1.0,
        -0.9984897375106812
      ],
      "type": "VEC3"
    },
    {
      "bufferView": 0,
      "byteOffset": 1421940,
      "componentType": 5125,
      "count": 65751,
      "type": "SCALAR"
    },
    {
      "bufferView": 1,
      "byteOffset": 10003488,
      "componentType": 5126,
      "count": 34134,
      "max": [
        52.47529983520508,
        51.35409927368164,
        56.73759841918945
      ],
      "min": [
        -106.11799621582031,
        2.6561899185180664,
        -39.20920181274414
      ],
      "type": "VEC3"
    },
    {
      "bufferView": 1,
      "byteOffset": 10413096,
      "componentType": 5126,
      "count": 34134,
      "max": [
        0.9999632239341736,
        1.0,
        0.9698653817176819
      ],
      "min": [
        -1.0,
        -0.9996591806411743,
        -0.9934534430503845
      ],
      "type": "VEC3"
    },
    {
      "bufferView": 0,
      "byteOffset": 1684944,
      "componentType": 5125,
      "count": 34326,
      "type": "SCALAR"
    },
    {
      "bufferView": 1,
      "byteOffset": 10822704,
      "componentType": 5126,
      "count": 65534,
      "max": [
        110.81900024414063,
        0.5565214157104492,
        72.52759552001953
      ],
      "min": [
        -127.31300354003906,
        -32.46296310424805,
        21.185800552368164
      ],
      "type": "VEC3"
    },
    {
      "bufferView": 1,
      "byteOffset": 11609112,
      "componentType": 5126,
      "count": 65534,
      "max": [
        1.0,
        1.0,
        1.0
      ],
      "min": [
        -0.9999688863754272,
        -0.9836145043373108,
        -0.9997081756591797
      ],
      "type": "VEC3"
    },
    {
      "bufferView": 0,
      "byteOffset": 1822248,
      "componentType": 5125,
      "count": 65541,
      "type": "SCALAR"
    },
    {
      "bufferView": 1,
      "byteOffset": 12395520,
      "componentType": 5126,
      "count": 65534,
      "max": [
        129.89700317382813,
        -27.449501037597656,
        72.52649688720703
      ],
      "min": [
        -147.6136474609375,
        -52.239688873291016,
        -1.8033100366592407
      ],
      "type": "VEC3"
    },
    {
      "bufferView": 1,
      "byteOffset": 13181928,
      "componentType": 5126,
      "count": 65534,
      "max": [
        1.0,
        0.9999212026596069,
        0.9999681115150452
      ],
      "min": [
        -1.0,
        -0.9823817014694214,
        -1.0
      ],
      "type": "VEC3"
    },
    {
      "bufferView": 0,
      "byteOffset": 2084412,
      "componentType": 5125,
      "count": 65547,
      "type": "SCALAR"
    },
    {
      "bufferView": 1,
      "byteOffset": 13968336,
      "componentType": 5126,
      "count": 65534,
      "max": [
        134.99830627441406,
        -48.6956672668457,
        74.64927673339844
      ],
      "min": [
        -148.61099243164063,
        -134.7546844482422,
        -1.8033100366592407
      ],
      "type": "VEC3"
    },
    {
      "bufferView": 1,
      "byteOffset": 14754744,
      "componentType": 5126,
      "count": 65534,
      "max": [
        1.0,
        0.6268913149833679,
        0.9999998211860657
      ],
      "min": [
        -1.0,
        -0.9864501357078552,
        -0.9998652935028076
      ],
      "type": "VEC3"
    },
    {
      "bufferView": 0,
      "byteOffset": 2346600,
      "componentType": 5125,
      "count": 65550,
      "type": "SCALAR"
    },
    {
      "bufferView": 1,
      "byteOffset": 15541152,
      "componentType": 5126,
      "count": 65532,
      "max": [
        139.40699768066406,
        -92.05622100830078,
        82.3738021850586
      ],
      "min": [
        -150.6719970703125,
        -166.90277099609375,
        19.837600708007813
      ],
      "type": "VEC3"
    },
    {
      "bufferView": 1,
      "byteOffset": 16327536,
      "componentType": 5126,
      "count": 65532,
      "max": [
        1.0,
        0.6171637773513794,
        0.999936580657959
      ],
      "min": [
        -1.0,
        -0.9999992847442627,
        -0.9967446327209473
      ],
      "type": "VEC3"
    },
    {
      "bufferView": 0,
      "byteOffset": 2608800,
      "componentType": 5125,
      "count": 65538,
      "type": "SCALAR"
    },
    {
      "bufferView": 1,
      "byteOffset": 17113920,
      "componentType": 5126,
      "count": 65534,
      "max": [
        133.54701232910156,
        -58.53395080566406,
        58.12767028808594
      ],
      "min": [
        -148.9016876220703,
        -93.89998626708984,
        2.0392398834228516
      ],
      "type": "VEC3"
    },
    {
      "bufferView": 1,
      "byteOffset": 17900328,
      "componentType": 5126,
      "count": 65534,
      "max": [
        1.0,
        0.8215611577033997,
        1.0
      ],
      "min": [
        -1.0,
        -0.9429448843002319,
        -0.9826245307922363
      ],
      "type": "VEC3"
    },
    {
      "bufferView": 0,
      "byteOffset": 2870952,
      "componentType": 5125,
      "count": 65538,
      "type": "SCALAR"
    },
    {
      "bufferView": 1,
      "byteOffset": 18686736,
      "componentType": 5126,
      "count": 11298,
      "max": [
        133.5399932861328,
        -54.90243148803711,
        60.959110260009766
      ],
      "min": [
        -148.9016876220703,
        -65.49458312988281,
        0.029474548995494843
      ],
      "type": "VEC3"
    },
    {
      "bufferView": 1,
      "byteOffset": 18822312,
      "componentType": 5126,
      "count": 11298,
      "max": [
        0.9999189376831055,
        0.6285532712936401,
        1.0
      ],
      "min": [
        -0.9999881982803345,
        -0.9474592804908752,
        -0.981113612651825
      ],
      "type": "VEC3"
    },
    {
      "bufferView": 0,
      "byteOffset": 3133104,
      "componentType": 5125,
      "count": 11298,
      "type": "SCALAR"
    },
    {
      "bufferView": 1,
      "byteOffset": 18957888,
      "componentType": 5126,
      "count": 65532,
      "max": [
        38.28226852416992,
        170.0912322998047,
        60.54840087890625
      ],
      "min": [
        -47.6302604675293,
        73.38896179199219,
        18.55402374267578
      ],
      "type": "VEC3"
    },
    {
      "bufferView": 1,
      "byteOffset": 19744272,
      "componentType": 5126,
      "count": 65532,
      "max": [
        1.0,
        0.9826314449310303,
        0.9999999403953552
      ],
      "min": [
        -1.0,
        -1.0,
        -1.0
      ],
      "type": "VEC3"
    },
    {
      "bufferView": 0,
      "byteOffset": 3178296,
      "componentType": 5125,
      "count": 65535,
      "type": "SCALAR"
    },
    {
      "bufferView": 1,
      "byteOffset": 20530656,
      "componentType": 5126,
      "count": 65533,
      "max": [
        92.12359619140625,
        76.20660400390625,
        111.63899993896484
      ],
      "min": [
        -101.79000091552734,
        -163.23699951171875,
        6.626500129699707
      ],
      "type": "VEC3"
    },
    {
      "bufferView": 1,
      "byteOffset": 21317052,
      "componentType": 5126,
      "count": 65533,
      "max": [
        1.0,
        0.9895713329315186,
        1.0
      ],
      "min": [
        -1.0,
        -0.9996310472488403,
        -1.0
      ],
      "type": "VEC3"
    },
    {
      "bufferView": 0,
      "byteOffset": 3440436,
      "componentType": 5125,
      "count": 65535,
      "type": "SCALAR"
    },
    {
      "bufferView": 1,
      "byteOffset": 22103448,
      "componentType": 5126,
      "count": 54688,
      "max": [
        84.21060180664063,
        47.749046325683594,
        106.48400115966797
      ],
      "min": [
        -98.79000091552734,
        -113.19593048095703,
        -2.580749988555908
      ],
      "type": "VEC3"
    },
    {
      "bufferView": 1,
      "byteOffset": 22759704,
      "componentType": 5126,
      "count": 54688,
      "max": [
        0.9999974966049194,
        0.9746716618537903,
        0.9999868273735046
      ],
      "min": [
        -1.0,
        -0.9994828104972839,
        -0.9999959468841553
      ],
      "type": "VEC3"
    },
    {
      "bufferView": 0,
      "byteOffset": 3702576,
      "componentType": 5125,
      "count": 54690,
      "type": "SCALAR"
    },
    {
      "bufferView": 1,
      "byteOffset": 23415960,
      "componentType": 5126,
      "count": 65534,
      "max": [
        22.80579948425293,
        142.34800720214844,
        44.4828987121582
      ],
      "min": [
        -27.52630043029785,
        58.569801330566406,
        -3.926330089569092
      ],
      "type": "VEC3"
    },
    {
      "bufferView": 1,
      "byteOffset": 24202368,
      "componentType": 5126,
      "count": 65534,
      "max": [
        0.9999622106552124,
        1.0,
        1.0
      ],
      "min": [
        -0.9999632239341736,
        -0.9998597502708435,
        -1.0
      ],
      "type": "VEC3"
    },
    {
      "bufferView": 0,
      "byteOffset": 3921336,
      "componentType": 5125,
      "count": 66309,
      "type": "SCALAR"
    },
    {
      "bufferView": 1,
      "byteOffset": 24988776,
      "componentType": 5126,
      "count": 39433,
      "max": [
        23.74799919128418,
        138.125,
        46.12649917602539
      ],
      "min": [
        -24.94230079650879,
        99.1666030883789,
        11.363499641418457
      ],
      "type": "VEC3"
    },
    {
      "bufferView": 1,
      "byteOffset": 25461972,
      "componentType": 5126,
      "count": 39433,
      "max": [
        0.9988031387329102,
        0.9993325471878052,
        1.0
      ],
      "min": [
        -1.0,
        -1.0,
        -1.0
      ],
      "type": "VEC3"
    },
    {
      "bufferView": 0,
      "byteOffset": 4186572,
      "componentType": 5125,
      "count": 39945,
      "type": "SCALAR"
    },
    {
      "bufferView": 1,
      "byteOffset": 25935168,
      "componentType": 5126,
      "count": 65533,
      "max": [
        22.8523006439209,
        170.08900451660156,
        43.72650146484375
      ],
      "min": [
        -23.171499252319336,
        127.2750015258789,
        -28.257299423217773
      ],
      "type": "VEC3"
    },
    {
      "bufferView": 1,
      "byteOffset": 26721564,
      "componentType": 5126,
      "count": 65533,
      "max": [
        0.9997943639755249,
        1.0,
        1.0
      ],
      "min": [
        -1.0,
        -1.0,
        -1.0
      ],
      "type": "VEC3"
    },
    {
      "bufferView": 0,
      "byteOffset": 4346352,
      "componentType": 5125,
      "count": 68244,
      "type": "SCALAR"
    },
    {
      "bufferView": 1,
      "byteOffset": 27507960,
      "componentType": 5126,
      "count": 40968,
      "max": [
        32.333099365234375,
        162.91700744628906,
        42.92649841308594
      ],
      "min": [
        -34.10710144042969,
        146.97900390625,
        -12.080599784851074
      ],
      "type": "VEC3"
    },
    {
      "bufferView": 1,
      "byteOffset": 27999576,
      "componentType": 5126,
      "count": 40968,
      "max": [
        1.0,
        0.998937726020813,
        1.0
      ],
      "min": [
        -1.0,
        -0.9999483227729797,
        -1.0
      ],
      "type": "VEC3"
    },
    {
      "bufferView": 0,
      "byteOffset": 4619328,
      "componentType": 5125,
      "count": 41268,
      "type": "SCALAR"
    },
    {
      "bufferView": 1,
      "byteOffset": 28491192,
      "componentType": 5126,
      "count": 65533,
      "max": [
        32.39950180053711,
        141.06300354003906,
        42.92649841308594
      ],
      "min": [
        -40.10309982299805,
        98.9490966796875,
        -28.257299423217773
      ],
      "type": "VEC3"
    },
    {
      "bufferView": 1,
      "byteOffset": 29277588,
      "componentType": 5126,
      "count": 65533,
      "max": [
        1.0,
        1.0,
        1.0
      ],
      "min": [
        -1.0,
        -0.9999364018440247,
        -1.0
      ],
      "type": "VEC3"
    },
    {
      "bufferView": 0,
      "byteOffset": 4784400,
      "componentType": 5125,
      "count": 67278,
      "type": "SCALAR"
    },
    {
      "bufferView": 1,
      "byteOffset": 30063984,
      "componentType": 5126,
      "count": 59711,
      "max": [
        36.767398834228516,
        126.61499786376953,
        44.3036003112793
      ],
      "min": [
        -40.30509948730469,
        100.51399993896484,
        -28.257299423217773
      ],
      "type": "VEC3"
    },
    {
      "bufferView": 1,
      "byteOffset": 30780516,
      "componentType": 5126,
      "count": 59711,
      "max": [
        1.0,
        0.999836802482605,
        1.0
      ],
      "min": [
        -1.0,
        -1.0,
        -1.0
      ],
      "type": "VEC3"
    },
    {
      "bufferView": 0,
      "byteOffset": 5053512,
      "componentType": 5125,
      "count": 60096,
      "type": "SCALAR"
    },
    {
      "bufferView": 1,
      "byteOffset": 31497048,
      "componentType": 5126,
      "count": 65533,
      "max": [
        46.67940139770508,
        116.43199920654297,
        34.41680145263672
      ],
      "min": [
        -47.8661003112793,
        83.2291030883789,
        -28.98579978942871
      ],
      "type": "VEC3"
    },
    {
      "bufferView": 1,
      "byteOffset": 32283444,
      "componentType": 5126,
      "count": 65533,
      "max": [
        1.0,
        1.0,
        1.0
      ],
      "min": [
        -0.9998059272766113,
        -0.9962174296379089,
        -1.0
      ],
      "type": "VEC3"
    },
    {
      "bufferView": 0,
      "byteOffset": 5293896,
      "componentType": 5125,
      "count": 66198,
      "type": "SCALAR"
    },
    {
      "bufferView": 1,
      "byteOffset": 33069840,
      "componentType": 5126,
      "count": 65533,
      "max": [
        38.32550048828125,
        95.625,
        33.848201751708984
      ],
      "min": [
        -41.84640121459961,
        63.4807014465332,
        -27.473499298095703
      ],
      "type": "VEC3"
    },
    {
      "bufferView": 1,
      "byteOffset": 33856236,
      "componentType": 5126,
      "count": 65533,
      "max": [
        0.9942846894264221,
        0.9831953644752502,
        0.9887351989746094
      ],
      "min": [
        -1.0,
        -1.0,
        -1.0
      ],
      "type": "VEC3"
    },
    {
      "bufferView": 0,
      "byteOffset": 5558688,
      "componentType": 5125,
      "count": 65871,
      "type": "SCALAR"
    },
    {
      "bufferView": 1,
      "byteOffset": 34642632,
      "componentType": 5126,
      "count": 10864,
      "max": [
        42.245601654052734,
        97.39579772949219,
        21.726499557495117
      ],
      "min": [
        -45.847198486328125,
        94.739501953125,
        -28.829999923706055
      ],
      "type": "VEC3"
    },
    {
      "bufferView": 1,
      "byteOffset": 34773000,
      "componentType": 5126,
      "count": 10864,
      "max": [
        0.8738267421722412,
        0.9864031672477722,
        0.9958699941635132
      ],
      "min": [
        -0.9882720708847046,
        -0.8708617091178894,
        -1.0
      ],
      "type": "VEC3"
    },
    {
      "bufferView": 0,
      "byteOffset": 5822172,
      "componentType": 5125,
      "count": 10923,
      "type": "SCALAR"
    },
    {
      "bufferView": 1,
      "byteOffset": 34903368,
      "componentType": 5126,
      "count": 65534,
      "max": [
        37.551998138427734,
        170.08900451660156,
        27.576499938964844
      ],
      "min": [
        -42.2317008972168,
        116.875,
        0.24792499840259552
      ],
      "type": "VEC3"
    },
    {
      "bufferView": 1,
      "byteOffset": 35689776,
      "componentType": 5126,
      "count": 65534,
      "max": [
        0.9997894167900085,
        0.8685474395751953,
        1.0
      ],
      "min": [
        -1.0,
        -1.0,
        -1.0
      ],
      "type": "VEC3"
    },
    {
      "bufferView": 0,
      "byteOffset": 5865864,
      "componentType": 5125,
      "count": 66984,
      "type": "SCALAR"
    },
    {
      "bufferView": 1,
      "byteOffset": 36476184,
      "componentType": 5126,
      "count": 65533,
      "max": [
        72.79570007324219,
        117.76000213623047,
        74.98069763183594
      ],
      "min": [
        -105.42500305175781,
        20.364500045776367,
        -59.31909942626953
      ],
      "type": "VEC3"
    },
    {
      "bufferView": 1,
      "byteOffset": 37262580,
      "componentType": 5126,
      "count": 65533,
      "max": [
        1.0,
        0.9982793927192688,
        1.0
      ],
      "min": [
        -0.9999964237213135,
        -0.9982601404190063,
        -0.9999714493751526
      ],
      "type": "VEC3"
    },
    {
      "bufferView": 0,
      "byteOffset": 6133800,
      "componentType": 5125,
      "count": 65796,
      "type": "SCALAR"
    },
    {
      "bufferView": 1,
      "byteOffset": 38048976,
      "componentType": 5126,
      "count": 65534,
      "max": [
        98.16290283203125,
        25.677000045776367,
        80.24579620361328
      ],
      "min": [
        -105.74500274658203,
        15.937399864196777,
        -60.84590148925781
      ],
      "type": "VEC3"
    },
    {
      "bufferView": 1,
      "byteOffset": 38835384,
      "componentType": 5126,
      "count": 65534,
      "max": [
        1.0,
        0.9997525215148926,
        1.0
      ],
      "min": [
        -0.999504804611206,
        -1.0,
        -1.0
      ],
      "type": "VEC3"
    },
    {
      "bufferView": 0,
      "byteOffset": 6396984,
      "componentType": 5125,
      "count": 66219,
      "type": "SCALAR"
    },
    {
      "bufferView": 1,
      "byteOffset": 39621792,
      "componentType": 5126,
      "count": 65532,
      "max": [
        83.9363021850586,
        16.822900772094727,
        87.61419677734375
      ],
      "min": [
        -70.79759979248047,
        2.6561899185180664,
        -62.05039978027344
      ],
      "type": "VEC3"
    },
    {
      "bufferView": 1,
      "byteOffset": 40408176,
      "componentType": 5126,
      "count": 65532,
      "max": [
        1.0,
        0.9962267875671387,
        1.0
      ],
      "min": [
        -0.999830424785614,
        -1.0,
        -0.9999853372573853
      ],
      "type": "VEC3"
    },
    {
      "bufferView": 0,
      "byteOffset": 6661860,
      "componentType": 5125,
      "count": 65595,
      "type": "SCALAR"
    },
    {
      "bufferView": 1,
      "byteOffset": 41194560,
      "componentType": 5126,
      "count": 65532,
      "max": [
        92.7665023803711,
        3.5416100025177,
        101.677001953125
      ],
      "min": [
        -103.73699951171875,
        -72.60430145263672,
        -61.548500061035156
      ],
      "type": "VEC3"
    },
    {
      "bufferView": 1,
      "byteOffset": 41980944,
      "componentType": 5126,
      "count": 65532,
      "max": [
        1.0,
        0.9985798597335815,
        1.0
      ],
      "min": [
        -0.9999913573265076,
        -0.9976029992103577,
        -0.9995827078819275
      ],
      "type": "VEC3"
    },
    {
      "bufferView": 0,
      "byteOffset": 6924240,
      "componentType": 5125,
      "count": 65661,
      "type": "SCALAR"
    },
    {
      "bufferView": 1,
      "byteOffset": 42767328,
      "componentType": 5126,
      "count": 65534,
      "max": [
        94.58899688720703,
        -71.71880340576172,
        -4.681489944458008
      ],
      "min": [
        -104.38999938964844,
        -164.91299438476563,
        -25.826799392700195
      ],
      "type": "VEC3"
    },
    {
      "bufferView": 1,
      "byteOffset": 43553736,
      "componentType": 5126,
      "count": 65534,
      "max": [
        1.0,
        0.48970213532447815,
        1.0
      ],
      "min": [
        -1.0,
        -0.999825119972229,
        -1.0
      ],
      "type": "VEC3"
    },
    {
      "bufferView": 0,
      "byteOffset": 7186884,
      "componentType": 5125,
      "count": 66297,
      "type": "SCALAR"
    },
    {
      "bufferView": 1,
      "byteOffset": 44340144,
      "componentType": 5126,
      "count": 65533,
      "max": [
        94.50779724121094,
        -26.562599182128906,
        102.49099731445313
      ],
      "min": [
        -102.60700225830078,
        -123.95800018310547,
        -25.07349967956543
      ],
      "type": "VEC3"
    },
    {
      "bufferView": 1,
      "byteOffset": 45126540,
      "componentType": 5126,
      "count": 65533,
      "max": [
        0.9999678730964661,
        0.6698384284973145,
        1.0
      ],
      "min": [
        -1.0,
        -0.9957649111747742,
        -1.0
      ],
      "type": "VEC3"
    },
    {
      "bufferView": 0,
      "byteOffset": 7452072,
      "componentType": 5125,
      "count": 65838,
      "type": "SCALAR"
    },
    {
      "bufferView": 1,
      "byteOffset": 45912936,
      "componentType": 5126,
      "count": 65532,
      "max": [
        76.6947021484375,
        30.10409927368164,
        98.05870056152344
      ],
      "min": [
        -104.53600311279297,
        -27.447999954223633,
        -59.4734992980957
      ],
      "type": "VEC3"
    },
    {
      "bufferView": 1,
      "byteOffset": 46699320,
      "componentType": 5126,
      "count": 65532,
      "max": [
        1.0,
        1.0,
        0.9999715089797974
      ],
      "min": [
        -0.9996808767318726,
        -0.9995920658111572,
        -0.9997731447219849
      ],
      "type": "VEC3"
    },
    {
      "bufferView": 0,
      "byteOffset": 7715424,
      "componentType": 5125,
      "count": 65586,
      "type": "SCALAR"
    },
    {
      "bufferView": 1,
      "byteOffset": 47485704,
      "componentType": 5126,
      "count": 65533,
      "max": [
        56.45949935913086,
        39.84370040893555,
        72.2479019165039
      ],
      "min": [
        -67.70220184326172,
        29.218700408935547,
        -59.4734992980957
      ],
      "type": "VEC3"
    },
    {
      "bufferView": 1,
      "byteOffset": 48272100,
      "componentType": 5126,
      "count": 65533,
      "max": [
        0.9999858736991882,
        0.9992976784706116,
        1.0
      ],
      "min": [
        -1.0,
        -0.9866244196891785,
        -1.0
      ],
      "type": "VEC3"
    },
    {
      "bufferView": 0,
      "byteOffset": 7977768,
      "componentType": 5125,
      "count": 65559,
      "type": "SCALAR"
    },
    {
      "bufferView": 1,
      "byteOffset": 49058496,
      "componentType": 5126,
      "count": 65533,
      "max": [
        50.646400451660156,
        51.35409927368164,
        65.8989028930664
      ],
      "min": [
        -57.31439971923828,
        38.95830154418945,
        -54.52870178222656
      ],
      "type": "VEC3"
    },
    {
      "bufferView": 1,
      "byteOffset": 49844892,
      "componentType": 5126,
      "count": 65533,
      "max": [
        0.9999669194221497,
        0.9921752214431763,
        1.0
      ],
      "min": [
        -0.9996632933616638,
        -0.9995213747024536,
        -0.9993884563446045
      ],
      "type": "VEC3"
    },
    {
      "bufferView": 0,
      "byteOffset": 8240004,
      "componentType": 5125,
      "count": 65649,
      "type": "SCALAR"
    },
    {
      "bufferView": 1,
      "byteOffset": 50631288,
      "componentType": 5126,
      "count": 65533,
      "max": [
        47.5806999206543,
        62.864498138427734,
        60.17559814453125
      ],
      "min": [
        -53.92100143432617,
        50.46870040893555,
        -49.50859832763672
      ],
      "type": "VEC3"
    },
    {
      "bufferView": 1,
      "byteOffset": 51417684,
      "componentType": 5126,
      "count": 65533,
      "max": [
        1.0,
        0.999947726726532,
        0.9999651312828064
      ],
      "min": [
        -0.9999262094497681,
        -0.9885463118553162,
        -0.9998646974563599
      ],
      "type": "VEC3"
    },
    {
      "bufferView": 0,
      "byteOffset": 8502600,
      "componentType": 5125,
      "count": 65553,
      "type": "SCALAR"
    },
    {
      "bufferView": 1,
      "byteOffset": 52204080,
      "componentType": 5126,
      "count": 65534,
      "max": [
        43.668701171875,
        76.14579772949219,
        54.24369812011719
      ],
      "min": [
        -50.36750030517578,
        61.97909927368164,
        -41.07350158691406
      ],
      "type": "VEC3"
    },
    {
      "bufferView": 1,
      "byteOffset": 52990488,
      "componentType": 5126,
      "count": 65534,
      "max": [
        1.0,
        0.998622715473175,
        0.9999030232429504
      ],
      "min": [
        -0.9998603463172913,
        -0.9978049993515015,
        -1.0
      ],
      "type": "VEC3"
    },
    {
      "bufferView": 0,
      "byteOffset": 8764812,
      "componentType": 5125,
      "count": 65568,
      "type": "SCALAR"
    },
    {
      "bufferView": 1,
      "byteOffset": 53776896,
      "componentType": 5126,
      "count": 65534,
      "max": [
        63.11330032348633,
        90.3125,
        48.17559814453125
      ],
      "min": [
        -68.88700103759766,
        74.375,
        -33.859901428222656
      ],
      "type": "VEC3"
    },
    {
      "bufferView": 1,
      "byteOffset": 54563304,
      "componentType": 5126,
      "count": 65534,
      "max": [
        1.0,
        0.9995777010917664,
        0.9998524188995361
      ],
      "min": [
        -1.0,
        -0.9983689785003662,
        -1.0
      ],
      "type": "VEC3"
    },
    {
      "bufferView": 0,
      "byteOffset": 9027084,
      "componentType": 5125,
      "count": 65547,
      "type": "SCALAR"
    },
    {
      "bufferView": 1,
      "byteOffset": 55349712,
      "componentType": 5126,
      "count": 36201,
      "max": [
        58.838199615478516,
        100.052001953125,
        41.29199981689453
      ],
      "min": [
        -64.7083969116211,
        89.427001953125,
        -15.47350025177002
      ],
      "type": "VEC3"
    },
    {
      "bufferView": 1,
      "byteOffset": 55784124,
      "componentType": 5126,
      "count": 36201,
      "max": [
        1.0,
        0.8819954991340637,
        1.0
      ],
      "min": [
        -1.0,
        -0.9997571110725403,
        -0.9999771118164063
      ],
      "type": "VEC3"
    },
    {
      "bufferView": 0,
      "byteOffset": 9289272,
      "componentType": 5125,
      "count": 36306,
      "type": "SCALAR"
    },
    {
      "bufferView": 1,
      "byteOffset": 56218536,
      "componentType": 5126,
      "count": 65532,
      "max": [
        49.860801696777344,
        17.935699462890625,
        50.573001861572266
      ],
      "min": [
        -72.32099914550781,
        -17.37299919128418,
        -0.3173069953918457
      ],
      "type": "VEC3"
    },
    {
      "bufferView": 1,
      "byteOffset": 57004920,
      "componentType": 5126,
      "count": 65532,
      "max": [
        1.0,
        0.9993520379066467,
        0.9999611377716064
      ],
      "min": [
        -1.0,
        -0.999994158744812,
        -0.9996015429496765
      ],
      "type": "VEC3"
    },
    {
      "bufferView": 0,
      "byteOffset": 9434496,
      "componentType": 5125,
      "count": 65646,
      "type": "SCALAR"
    },
    {
      "bufferView": 1,
      "byteOffset": 57791304,
      "componentType": 5126,
      "count": 65532,
      "max": [
        50.11759948730469,
        1.6113699674606323,
        50.99800109863281
      ],
      "min": [
        -72.30290222167969,
        -21.943300247192383,
        -0.3173069953918457
      ],
      "type": "VEC3"
    },
    {
      "bufferView": 1,
      "byteOffset": 58577688,
      "componentType": 5126,
      "count": 65532,
      "max": [
        1.0,
        0.9998111128807068,
        1.0
      ],
      "min": [
        -1.0,
        -1.0,
        -1.0
      ],
      "type": "VEC3"
    },
    {
      "bufferView": 0,
      "byteOffset": 9697080,
      "componentType": 5125,
      "count": 66270,
      "type": "SCALAR"
    },
    {
      "bufferView": 1,
      "byteOffset": 59364072,
      "componentType": 5126,
      "count": 816,
      "max": [
        45.37900161743164,
        1.6113699674606323,
        26.753000259399414
      ],
      "min": [
        -72.0647964477539,
        0.908249020576477,
        17.61240005493164
      ],
      "type": "VEC3"
    },
    {
      "bufferView": 1,
      "byteOffset": 59373864,
      "componentType": 5126,
      "count": 816,
      "max": [
        0.9948558807373047,
        0.7524663805961609,
        0.9558181762695313
      ],
      "min": [
        -0.9732808470726013,
        -0.8090277910232544,
        -0.8984061479568481
      ],
      "type": "VEC3"
    },
    {
      "bufferView": 0,
      "byteOffset": 9962160,
      "componentType": 5125,
      "count": 816,
      "type": "SCALAR"
    },
    {
      "bufferView": 1,
      "byteOffset": 59383656,
      "componentType": 5126,
      "count": 65532,
      "max": [
        131.18099975585938,
        115.45899963378906,
        80.23033905029297
      ],
      "min": [
        -137.25599670410156,
        83.98196411132813,
        -36.082088470458984
      ],
      "type": "VEC3"
    },
    {
      "bufferView": 1,
      "byteOffset": 60170040,
      "componentType": 5126,
      "count": 65532,
      "max": [
        0.9999986886978149,
        0.9999996423721313,
        0.888990044593811
      ],
      "min": [
        -1.0,
        -0.6694155931472778,
        -0.9697666764259338
      ],
      "type": "VEC3"
    },
    {
      "bufferView": 0,
      "byteOffset": 9965424,
      "componentType": 5125,
      "count": 65532,
      "type": "SCALAR"
    },
    {
      "bufferView": 1,
      "byteOffset": 60956424,
      "componentType": 5126,
      "count": 65532,
      "max": [
        131.7689971923828,
        88.56515502929688,
        99.93009948730469
      ],
      "min": [
        -135.64199829101563,
        64.58833312988281,
        -49.506595611572266
      ],
      "type": "VEC3"
    },
    {
      "bufferView": 1,
      "byteOffset": 61742808,
      "componentType": 5126,
      "count": 65532,
      "max": [
        0.9999999403953552,
        0.916873574256897,
        0.9808288812637329
      ],
      "min": [
        -0.9999991655349731,
        -0.8486125469207764,
        -0.9670121073722839
      ],
      "type": "VEC3"
    },
    {
      "bufferView": 0,
      "byteOffset": 10227552,
      "componentType": 5125,
      "count": 65532,
      "type": "SCALAR"
    },
    {
      "bufferView": 1,
      "byteOffset": 62529192,
      "componentType": 5126,
      "count": 65532,
      "max": [
        123.76100158691406,
        68.18656158447266,
        100.53680419921875
      ],
      "min": [
        -122.30000305175781,
        -34.55292510986328,
        -49.67216873168945
      ],
      "type": "VEC3"
    },
    {
      "bufferView": 1,
      "byteOffset": 63315576,
      "componentType": 5126,
      "count": 65532,
      "max": [
        1.0,
        0.9524958729743958,
        0.9999993443489075
      ],
      "min": [
        -1.0,
        -0.9990686178207397,
        -0.9999877214431763
      ],
      "type": "VEC3"
    },
    {
      "bufferView": 0,
      "byteOffset": 10489680,
      "componentType": 5125,
      "count": 65532,
      "type": "SCALAR"
    },
    {
      "bufferView": 1,
      "byteOffset": 64101960,
      "componentType": 5126,
      "count": 65532,
      "max": [
        84.7410659790039,
        -30.103097915649414,
        96.7922134399414
      ],
      "min": [
        -92.35700225830078,
        -84.96022033691406,
        -8.275946617126465
      ],
      "type": "VEC3"
    },
    {
      "bufferView": 1,
      "byteOffset": 64888344,
      "componentType": 5126,
      "count": 65532,
      "max": [
        1.0,
        0.9999363422393799,
        0.9999604225158691
      ],
      "min": [
        -1.0,
        -0.9999468922615051,
        -0.9999606013298035
      ],
      "type": "VEC3"
    },
    {
      "bufferView": 0,
      "byteOffset": 10751808,
      "componentType": 5125,
      "count": 65532,
      "type": "SCALAR"
    },
    {
      "bufferView": 1,
      "byteOffset": 65674728,
      "componentType": 5126,
      "count": 65534,
      "max": [
        78.51170349121094,
        -42.500083923339844,
        97.60060119628906
      ],
      "min": [
        -91.84981536865234,
        -90.74982452392578,
        -8.275946617126465
      ],
      "type": "VEC3"
    },
    {
      "bufferView": 1,
      "byteOffset": 66461136,
      "componentType": 5126,
      "count": 65534,
      "max": [
        1.0,
        0.9985940456390381,
        0.9999908804893494
      ],
      "min": [
        -1.0,
        -0.999960720539093,
        -1.0
      ],
      "type": "VEC3"
    },
    {
      "bufferView": 0,
      "byteOffset": 11013936,
      "componentType": 5125,
      "count": 65538,
      "type": "SCALAR"
    },
    {
      "bufferView": 1,
      "byteOffset": 67247544,
      "componentType": 5126,
      "count": 65532,
      "max": [
        102.0473403930664,
        27.403873443603516,
        97.23919677734375
      ],
      "min": [
        -111.7153091430664,
        -45.356788635253906,
        2.4140381813049316
      ],
      "type": "VEC3"
    },
    {
      "bufferView": 1,
      "byteOffset": 68033928,
      "componentType": 5126,
      "count": 65532,
      "max": [
        0.9999997615814209,
        0.9796274900436401,
        0.9999977350234985
      ],
      "min": [
        -1.0,
        -0.9999998211860657,
        -1.0
      ],
      "type": "VEC3"
    },
    {
      "bufferView": 0,
      "byteOffset": 11276088,
      "componentType": 5125,
      "count": 65532,
      "type": "SCALAR"
    },
    {
      "bufferView": 1,
      "byteOffset": 68820312,
      "componentType": 5126,
      "count": 65532,
      "max": [
        112.91641998291016,
        48.231380462646484,
        100.89100646972656
      ],
      "min": [
        -115.0445327758789,
        17.706275939941406,
        -39.2094841003418
      ],
      "type": "VEC3"
    },
    {
      "bufferView": 1,
      "byteOffset": 69606696,
      "componentType": 5126,
      "count": 65532,
      "max": [
        1.0,
        0.7285383343696594,
        0.998563826084137
      ],
      "min": [
        -1.0,
        -0.9999948143959045,
        -0.9938720464706421
      ],
      "type": "VEC3"
    },
    {
      "bufferView": 0,
      "byteOffset": 11538216,
      "componentType": 5125,
      "count": 65532,
      "type": "SCALAR"
    },
    {
      "bufferView": 1,
      "byteOffset": 70393080,
      "componentType": 5126,
      "count": 62022,
      "max": [
        122.53486633300781,
        68.13986206054688,
        101.93399810791016
      ],
      "min": [
        -121.34400177001953,
        38.958587646484375,
        -49.6827278137207
      ],
      "type": "VEC3"
    },
    {
      "bufferView": 1,
      "byteOffset": 71137344,
      "componentType": 5126,
      "count": 62022,
      "max": [
        0.9999996423721313,
        0.815824031829834,
        0.9999265074729919
      ],
      "min": [
        -1.0,
        -0.9393433332443237,
        -0.9999940395355225
      ],
      "type": "VEC3"
    },
    {
      "bufferView": 0,
      "byteOffset": 11800344,
      "componentType": 5125,
      "count": 62022,
      "type": "SCALAR"
    },
    {
      "bufferView": 1,
      "byteOffset": 71881608,
      "componentType": 5126,
      "count": 65533,
      "max": [
        4.2352399826049805,
        47.37200164794922,
        15.071900367736816
      ],
      "min": [
        -36.21369934082031,
        20.595699310302734,
        -43.70920181274414
      ],
      "type": "VEC3"
    },
    {
      "bufferView": 1,
      "byteOffset": 72668004,
      "componentType": 5126,
      "count": 65533,
      "max": [
        0.9991570115089417,
        0.9999698996543884,
        0.9908128380775452
      ],
      "min": [
        -1.0,
        -0.9966720938682556,
        -0.9999598860740662
      ],
      "type": "VEC3"
    },
    {
      "bufferView": 0,
      "byteOffset": 12048432,
      "componentType": 5125,
      "count": 65796,
      "type": "SCALAR"
    },
    {
      "bufferView": 1,
      "byteOffset": 73454400,
      "componentType": 5126,
      "count": 65534,
      "max": [
        17.979000091552734,
        21.298900604248047,
        15.905699729919434
      ],
      "min": [
        -32.415000915527344,
        -37.76359939575195,
        -48.129798889160156
      ],
      "type": "VEC3"
    },
    {
      "bufferView": 1,
      "byteOffset": 74240808,
      "componentType": 5126,
      "count": 65534,
      "max": [
        1.0,
        0.9460262656211853,
        1.0
      ],
      "min": [
        -1.0,
        -0.8988239169120789,
        -1.0
      ],
      "type": "VEC3"
    },
    {
      "bufferView": 0,
      "byteOffset": 12311616,
      "componentType": 5125,
      "count": 66162,
      "type": "SCALAR"
    },
    {
      "bufferView": 1,
      "byteOffset": 75027216,
      "componentType": 5126,
      "count": 65532,
      "max": [
        7.472959995269775,
        -37.06050109863281,
        24.5093994140625
      ],
      "min": [
        -27.377300262451172,
        -87.47989654541016,
        -15.434499740600586
      ],
      "type": "VEC3"
    },
    {
      "bufferView": 1,
      "byteOffset": 75813600,
      "componentType": 5126,
      "count": 65532,
      "max": [
        1.0,
        0.621155858039856,
        1.0
      ],
      "min": [
        -1.0,
        -0.9994516372680664,
        -1.0
      ],
      "type": "VEC3"
    },
    {
      "bufferView": 0,
      "byteOffset": 12576264,
      "componentType": 5125,
      "count": 66687,
      "type": "SCALAR"
    },
    {
      "bufferView": 1,
      "byteOffset": 76599984,
      "componentType": 5126,
      "count": 65534,
      "max": [
        22.117599487304688,
        -16.66990089416504,
        24.5093994140625
      ],
      "min": [
        -31.72100067138672,
        -67.2948989868164,
        -40.38890075683594
      ],
      "type": "VEC3"
    },
    {
      "bufferView": 1,
      "byteOffset": 77386392,
      "componentType": 5126,
      "count": 65534,
      "max": [
        1.0,
        0.8260623812675476,
        0.9999598860740662
      ],
      "min": [
        -1.0,
        -0.9048869013786316,
        -0.9999603033065796
      ],
      "type": "VEC3"
    },
    {
      "bufferView": 0,
      "byteOffset": 12843012,
      "componentType": 5125,
      "count": 66123,
      "type": "SCALAR"
    },
    {
      "bufferView": 1,
      "byteOffset": 78172800,
      "componentType": 5126,
      "count": 42760,
      "max": [
        22.179000854492188,
        -4.013629913330078,
        1.0416300296783447
      ],
      "min": [
        -31.577299118041992,
        -17.37299919128418,
        -47.426700592041016
      ],
      "type": "VEC3"
    },
    {
      "bufferView": 1,
      "byteOffset": 78685920,
      "componentType": 5126,
      "count": 42760,
      "max": [
        0.9997887015342712,
        0.9126354455947876,
        0.9788673520088196
      ],
      "min": [
        -1.0,
        -0.8042023777961731,
        -0.9919973015785217
      ],
      "type": "VEC3"
    },
    {
      "bufferView": 0,
      "byteOffset": 13107504,
      "componentType": 5125,
      "count": 42948,
      "type": "SCALAR"
    },
    {
      "bufferView": 1,
      "byteOffset": 79199040,
      "componentType": 5126,
      "count": 65534,
      "max": [
        54.660301208496094,
        93.32219696044922,
        11.729806900024414
      ],
      "min": [
        -62.9182014465332,
        65.52079772949219,
        -37.704498291015625
      ],
      "type": "VEC3"
    },
    {
      "bufferView": 1,
      "byteOffset": 79985448,
      "componentType": 5126,
      "count": 65534,
      "max": [
        1.0,
        1.0,
        0.9998310208320618
      ],
      "min": [
        -1.0,
        -0.9997596740722656,
        -0.9999186992645264
      ],
      "type": "VEC3"
    },
    {
      "bufferView": 0,
      "byteOffset": 13279296,
      "componentType": 5125,
      "count": 65538,
      "type": "SCALAR"
    },
    {
      "bufferView": 1,
      "byteOffset": 80771856,
      "componentType": 5126,
      "count": 65533,
      "max": [
        50.20130157470703,
        68.04094696044922,
        3.581735849380493
      ],
      "min": [
        -58.87049865722656,
        -35.849998474121094,
        -64.87349700927734
      ],
      "type": "VEC3"
    },
    {
      "bufferView": 1,
      "byteOffset": 81558252,
      "componentType": 5126,
      "count": 65533,
      "max": [
        0.9995065331459045,
        0.9998306632041931,
        1.0
      ],
      "min": [
        -1.0,
        -0.9999999403953552,
        -1.0
      ],
      "type": "VEC3"
    },
    {
      "bufferView": 0,
      "byteOffset": 13541448,
      "componentType": 5125,
      "count": 65556,
      "type": "SCALAR"
    },
    {
      "bufferView": 1,
      "byteOffset": 82344648,
      "componentType": 5126,
      "count": 65533,
      "max": [
        50.15599822998047,
        53.12730407714844,
        10.126500129699707
      ],
      "min": [
        -57.8745002746582,
        -20.509841918945313,
        -68.2573013305664
      ],
      "type": "VEC3"
    },
    {
      "bufferView": 1,
      "byteOffset": 83131044,
      "componentType": 5126,
      "count": 65533,
      "max": [
        1.0,
        0.9997168779373169,
        1.0
      ],
      "min": [
        -1.0,
        -0.9998720288276672,
        -1.0
      ],
      "type": "VEC3"
    },
    {
      "bufferView": 0,
      "byteOffset": 13803672,
      "componentType": 5125,
      "count": 65562,
      "type": "SCALAR"
    },
    {
      "bufferView": 1,
      "byteOffset": 83917440,
      "componentType": 5126,
      "count": 56644,
      "max": [
        53.2494010925293,
        69.94796752929688,
        13.364299774169922
      ],
      "min": [
        -61.82379913330078,
        49.58332443237305,
        -50.09640121459961
      ],
      "type": "VEC3"
    },
    {
      "bufferView": 1,
      "byteOffset": 84597168,
      "componentType": 5126,
      "count": 56644,
      "max": [
        1.0,
        0.9997677803039551,
        1.0
      ],
      "min": [
        -1.0,
        -1.0,
        -1.0
      ],
      "type": "VEC3"
    },
    {
      "bufferView": 0,
      "byteOffset": 14065920,
      "componentType": 5125,
      "count": 56664,
      "type": "SCALAR"
    },
    {
      "bufferView": 1,
      "byteOffset": 85276896,
      "componentType": 5126,
      "count": 65532,
      "max": [
        41.19350051879883,
        21.547199249267578,
        59.90850067138672
      ],
      "min": [
        -65.9397964477539,
        0.908249020576477,
        6.010819911956787
      ],
      "type": "VEC3"
    },
    {
      "bufferView": 1,
      "byteOffset": 86063280,
      "componentType": 5126,
      "count": 65532,
      "max": [
        1.0,
        1.0,
        0.9352483749389648
      ],
      "min": [
        -0.9998140931129456,
        -0.9932010769844055,
        -0.9994606375694275
      ],
      "type": "VEC3"
    },
    {
      "bufferView": 0,
      "byteOffset": 14292576,
      "componentType": 5125,
      "count": 65679,
      "type": "SCALAR"
    },
    {
      "bufferView": 1,
      "byteOffset": 86849664,
      "componentType": 5126,
      "count": 65533,
      "max": [
        41.19350051879883,
        1.6113699674606323,
        62.260799407958984
      ],
      "min": [
        -65.0436019897461,
        -9.638629913330078,
        -3.6539499759674072
      ],
      "type": "VEC3"
    },
    {
      "bufferView": 1,
      "byteOffset": 87636060,
      "componentType": 5126,
      "count": 65533,
      "max": [
        1.0,
        0.9999317526817322,
        1.0
      ],
      "min": [
        -1.0,
        -0.9997286796569824,
        -1.0
      ],
      "type": "VEC3"
    },
    {
      "bufferView": 0,
      "byteOffset": 14555292,
      "componentType": 5125,
      "count": 66204,
      "type": "SCALAR"
    },
    {
      "bufferView": 1,
      "byteOffset": 88422456,
      "componentType": 5126,
      "count": 65534,
      "max": [
        30.229000091552734,
        -8.935500144958496,
        62.14149856567383
      ],
      "min": [
        -28.018800735473633,
        -89.44329833984375,
        -3.566009998321533
      ],
      "type": "VEC3"
    },
    {
      "bufferView": 1,
      "byteOffset": 89208864,
      "componentType": 5126,
      "count": 65534,
      "max": [
        1.0,
        0.9004951119422913,
        1.0
      ],
      "min": [
        -1.0,
        -1.0,
        -1.0
      ],
      "type": "VEC3"
    },
    {
      "bufferView": 0,
      "byteOffset": 14820108,
      "componentType": 5125,
      "count": 67212,
      "type": "SCALAR"
    },
    {
      "bufferView": 1,
      "byteOffset": 89995272,
      "componentType": 5126,
      "count": 65533,
      "max": [
        30.759599685668945,
        -18.779300689697266,
        58.73870086669922
      ],
      "min": [
        -27.07550048828125,
        -84.87300109863281,
        -0.3173069953918457
      ],
      "type": "VEC3"
    },
    {
      "bufferView": 1,
      "byteOffset": 90781668,
      "componentType": 5126,
      "count": 65533,
      "max": [
        1.0,
        0.7327411770820618,
        1.0
      ],
      "min": [
        -1.0,
        -0.9999936819076538,
        -1.0
      ],
      "type": "VEC3"
    },
    {
      "bufferView": 0,
      "byteOffset": 15088956,
      "componentType": 5125,
      "count": 66045,
      "type": "SCALAR"
    },
    {
      "bufferView": 1,
      "byteOffset": 91568064,
      "componentType": 5126,
      "count": 54924,
      "max": [
        40.304901123046875,
        -9.638629913330078,
        62.03070068359375
      ],
      "min": [
        -54.90850067138672,
        -19.48240089416504,
        -3.295989990234375
      ],
      "type": "VEC3"
    },
    {
      "bufferView": 1,
      "byteOffset": 92227152,
      "componentType": 5126,
      "count": 54924,
      "max": [
        1.0,
        0.9983612298965454,
        0.9999599456787109
      ],
      "min": [
        -0.9999635815620422,
        -1.0,
        -0.9999980330467224
      ],
      "type": "VEC3"
    },
    {
      "bufferView": 0,
      "byteOffset": 15353136,
      "componentType": 5125,
      "count": 55182,
      "type": "SCALAR"
    },
    {
      "bufferView": 1,
      "byteOffset": 92886240,
      "componentType": 5126,
      "count": 65534,
      "max": [
        15.140899658203125,
        -60.473899841308594,
        65.85179901123047
      ],
      "min": [
        -29.89940071105957,
        -77.13860321044922,
        -15.082900047302246
      ],
      "type": "VEC3"
    },
    {
      "bufferView": 1,
      "byteOffset": 93672648,
      "componentType": 5126,
      "count": 65534,
      "max": [
        1.0,
        1.0,
        1.0
      ],
      "min": [
        -1.0,
        -0.8888484239578247,
        -1.0
      ],
      "type": "VEC3"
    },
    {
      "bufferView": 0,
      "byteOffset": 15573864,
      "componentType": 5125,
      "count": 65916,
      "type": "SCALAR"
    },
    {
      "bufferView": 1,
      "byteOffset": 94459056,
      "componentType": 5126,
      "count": 65534,
      "max": [
        15.178999900817871,
        -72.9198989868164,
        69.0604019165039
      ],
      "min": [
        -28.92099952697754,
        -90.84459686279297,
        -14.9266996383667
      ],
      "type": "VEC3"
    },
    {
      "bufferView": 1,
      "byteOffset": 95245464,
      "componentType": 5126,
      "count": 65534,
      "max": [
        1.0,
        0.9780794382095337,
        0.9997291564941406
      ],
      "min": [
        -1.0,
        -0.9999942183494568,
        -0.9998827576637268
      ],
      "type": "VEC3"
    },
    {
      "bufferView": 0,
      "byteOffset": 15837528,
      "componentType": 5125,
      "count": 65610,
      "type": "SCALAR"
    },
    {
      "bufferView": 1,
      "byteOffset": 96031872,
      "componentType": 5126,
      "count": 48844,
      "max": [
        14.805100440979004,
        -75.7323989868164,
        69.0604019165039
      ],
      "min": [
        -28.92099952697754,
        -86.279296875,
        -14.16409969329834
      ],
      "type": "VEC3"
    },
    {
      "bufferView": 1,
      "byteOffset": 96618000,
      "componentType": 5126,
      "count": 48844,
      "max": [
        0.9987925291061401,
        0.9805180430412292,
        0.9997624158859253
      ],
      "min": [
        -1.0,
        -0.9979539513587952,
        -0.9999883770942688
      ],
      "type": "VEC3"
    },
    {
      "bufferView": 0,
      "byteOffset": 16099968,
      "componentType": 5125,
      "count": 48906,
      "type": "SCALAR"
    }
  ],
  "asset": {
    "extras": {
      "author": "audreybyrd (https://sketchfab.com/audreybyrd)",
      "license": "CC-BY-4.0 (http://creativecommons.org/licenses/by/4.0/)",
      "source": "https://sketchfab.com/3d-models/bony-pelvis-supply-organs-from-mri-8c12064abe744fc7b13fe9aded2d4b02",
      "title": "Bony Pelvis, Supply, Organs from MRI"
    },
    "generator": "Sketchfab-14.5.0",
    "version": "2.0"
  },
  "bufferViews": [
    {
      "buffer": 0,
      "byteLength": 16295592,
      "name": "floatBufferViews",
      "target": 34963
    },
    {
      "buffer": 0,
      "byteLength": 97204128,
      "byteOffset": 16295592,
      "byteStride": 12,
      "name": "floatBufferViews",
      "target": 34962
    }
  ],
  "buffers": [
    {
      "byteLength": 113499720,
      "uri": "scene.bin"
    }
  ],
  "materials": [
    {
      "doubleSided": true,
      "name": "Default_OBJ.001",
      "pbrMetallicRoughness": {
        "baseColorFactor": [
          0.8549926081242338,
          0.8631572134541021,
          0.5972017883637631,
          1.0
        ],
        "metallicFactor": 0.2,
        "roughnessFactor": 0.8
      }
    },
    {
      "doubleSided": true,
      "name": "Default_OBJ.002",
      "pbrMetallicRoughness": {
        "baseColorFactor": [
          0.8,
          0.8,
          0.8,
          1.0
        ],
        "metallicFactor": 0.0,
        "roughnessFactor": 0.5
      }
    },
    {
      "doubleSided": true,
      "name": "Default_OBJ.003",
      "pbrMetallicRoughness": {
        "baseColorFactor": [
          0.8631572134541021,
          0.8631572134541021,
          0.7529422167760779,
          1.0
        ],
        "metallicFactor": 0.2,
        "roughnessFactor": 0.8
      }
    },
    {
      "doubleSided": true,
      "name": "Default_OBJ.004",
      "pbrMetallicRoughness": {
        "baseColorFactor": [
          0.7529422167760779,
          0.03433980680868215,
          0.03433980680868215,
          1.0
        ],
        "metallicFactor": 0.2,
        "roughnessFactor": 0.8
      }
    },
    {
      "doubleSided": true,
      "name": "Default_OBJ.005",
      "pbrMetallicRoughness": {
        "baseColorFactor": [
          0.8,
          0.8,
          0.8,
          1.0
        ],
        "metallicFactor": 0.0,
        "roughnessFactor": 0.5
      }
    },
    {
      "doubleSided": true,
      "name": "Default_OBJ.006",
      "pbrMetallicRoughness": {
        "baseColorFactor": [
          0.8631572134541021,
          0.8631572134541021,
          0.7529422167760779,
          1.0
        ],
        "metallicFactor": 0.2,
        "roughnessFactor": 0.8
      }
    },
    {
      "doubleSided": true,
      "name": "Default_OBJ.007",
      "pbrMetallicRoughness": {
        "baseColorFactor": [
          0.8631572134541021,
          0.8631572134541021,
          0.7529422167760779,
          1.0
        ],
        "metallicFactor": 0.2,
        "roughnessFactor": 0.8
      }
    },
    {
      "doubleSided": true,
      "name": "Default_OBJ.008",
      "pbrMetallicRoughness": {
        "baseColorFactor": [
          0.8631572134541021,
          0.8631572134541021,
          0.7529422167760779,
          1.0
        ],
        "metallicFactor": 0.2,
        "roughnessFactor": 0.8
      }
    },
    {
      "doubleSided": true,
      "name": "Default_OBJ.009",
      "pbrMetallicRoughness": {
        "baseColorFactor": [
          1.0,
          0.9822505503331171,
          0.17144110073282254,
          1.0
        ],
        "metallicFactor": 0.2,
        "roughnessFactor": 0.8
      }
    },
    {
      "doubleSided": true,
      "name": "Default_OBJ.010",
      "pbrMetallicRoughness": {
        "baseColorFactor": [
          0.9301108583754234,
          0.23455058216100522,
          0.23455058216100522,
          1.0
        ],
        "metallicFactor": 0.2,
        "roughnessFactor": 0.8
      }
    },
    {
      "doubleSided": true,
      "name": "Default_OBJ.011",
      "pbrMetallicRoughness": {
        "baseColorFactor": [
          0.8631572134541021,
          0.8631572134541021,
          0.7529422167760779,
          1.0
        ],
        "metallicFactor": 0.2,
        "roughnessFactor": 0.8
      }
    },
    {
      "doubleSided": true,
      "name": "Default_OBJ.012",
      "pbrMetallicRoughness": {
        "baseColorFactor": [
          0.4851499400560704,
          0.2961382707983211,
          0.341914424908661,
          1.0
        ],
        "metallicFactor": 0.2,
        "roughnessFactor": 0.8
      }
    },
    {
      "doubleSided": true,
      "name": "Default_OBJ.013",
      "pbrMetallicRoughness": {
        "baseColorFactor": [
          0.8631572134541021,
          0.8631572134541021,
          0.7529422167760779,
          1.0
        ],
        "metallicFactor": 0.2,
        "roughnessFactor": 0.8
      }
    },
    {
      "doubleSided": true,
      "name": "Default_OBJ.014",
      "pbrMetallicRoughness": {
        "baseColorFactor": [
          0.9215818562772946,
          0.4019777798321951,
          0.4019777798321951,
          1.0
        ],
        "metallicFactor": 0.2,
        "roughnessFactor": 0.8
      }
    },
    {
      "doubleSided": true,
      "name": "Default_OBJ.015",
      "pbrMetallicRoughness": {
        "baseColorFactor": [
          0.938685728457888,
          0.6444796819705819,
          0.6444796819705819,
          1.0
        ],
        "metallicFactor": 0.2,
        "roughnessFactor": 0.8
      }
    }
  ],
  "meshes": [
    {
      "name": "Object_0",
      "primitives": [
        {
          "attributes": {
            "NORMAL": 1,
            "POSITION": 0
          },
          "indices": 2,
          "material": 0,
          "mode": 4
        }
      ]
    },
    {
      "name": "Object_1",
      "primitives": [
        {
          "attributes": {
            "NORMAL": 4,
            "POSITION": 3
          },
          "indices": 5,
          "material": 0,
          "mode": 4
        }
      ]
    },
    {
      "name": "Object_2",
      "primitives": [
        {
          "attributes": {
            "NORMAL": 7,
            "POSITION": 6
          },
          "indices": 8,
          "material": 0,
          "mode": 4
        }
      ]
    },
    {
      "name": "Object_3",
      "primitives": [
        {
          "attributes": {
            "NORMAL": 10,
            "POSITION": 9
          },
          "indices": 11,
          "material": 0,
          "mode": 4
        }
      ]
    },
    {
      "name": "Object_4",
      "primitives": [
        {
          "attributes": {
            "NORMAL": 13,
            "POSITION": 12
          },
          "indices": 14,
          "material": 1,
          "mode": 4
        }
      ]
    },
    {
      "name": "Object_5",
      "primitives": [
        {
          "attributes": {
            "NORMAL": 16,
            "POSITION": 15
          },
          "indices": 17,
          "material": 1,
          "mode": 4
        }
      ]
    },
    {
      "name": "Object_6",
      "primitives": [
        {
          "attributes": {
            "NORMAL": 19,
            "POSITION": 18
          },
          "indices": 20,
          "material": 1,
          "mode": 4
        }
      ]
    },
    {
      "name": "Object_7",
      "primitives": [
        {
          "attributes": {
            "NORMAL": 22,
            "POSITION": 21
          },
          "indices": 23,
          "material": 1,
          "mode": 4
        }
      ]
    },
    {
      "name": "Object_8",
      "primitives": [
        {
          "attributes": {
            "NORMAL": 25,
            "POSITION": 24
          },
          "indices": 26,
          "material": 2,
          "mode": 4
        }
      ]
    },
    {
      "name": "Object_9",
      "primitives": [
        {
          "attributes": {
            "NORMAL": 28,
            "POSITION": 27
          },
          "indices": 29,
          "material": 2,
          "mode": 4
        }
      ]
    },
    {
      "name": "Object_10",
      "primitives": [
        {
          "attributes": {
            "NORMAL": 31,
            "POSITION": 30
          },
          "indices": 32,
          "material": 2,
          "mode": 4
        }
      ]
    },
    {
      "name": "Object_11",
      "primitives": [
        {
          "attributes": {
            "NORMAL": 34,
            "POSITION": 33
          },
          "indices": 35,
          "material": 2,
          "mode": 4
        }
      ]
    },
    {
      "name": "Object_12",
      "primitives": [
        {
          "attributes": {
            "NORMAL": 37,
            "POSITION": 36
          },
          "indices": 38,
          "material": 2,
          "mode": 4
        }
      ]
    },
    {
      "name": "Object_13",
      "primitives": [
        {
          "attributes": {
            "NORMAL": 40,
            "POSITION": 39
          },
          "indices": 41,
          "material": 2,
          "mode": 4
        }
      ]
    },
    {
      "name": "Object_14",
      "primitives": [
        {
          "attributes": {
            "NORMAL": 43,
            "POSITION": 42
          },
          "indices": 44,
          "material": 3,
          "mode": 4
        }
      ]
    },
    {
      "name": "Object_15",
      "primitives": [
        {
          "attributes": {
            "NORMAL": 46,
            "POSITION": 45
          },
          "indices": 47,
          "material": 3,
          "mode": 4
        }
      ]
    },
    {
      "name": "Object_16",
      "primitives": [
        {
          "attributes": {
            "NORMAL": 49,
            "POSITION": 48
          },
          "indices": 50,
          "material": 3,
          "mode": 4
        }
      ]
    },
    {
      "name": "Object_17",
      "primitives": [
        {
          "attributes": {
            "NORMAL": 52,
            "POSITION": 51
          },
          "indices": 53,
          "material": 4,
          "mode": 4
        }
      ]
    },
    {
      "name": "Object_18",
      "primitives": [
        {
          "attributes": {
            "NORMAL": 55,
            "POSITION": 54
          },
          "indices": 56,
          "material": 4,
          "mode": 4
        }
      ]
    },
    {
      "name": "Object_19",
      "primitives": [
        {
          "attributes": {
            "NORMAL": 58,
            "POSITION": 57
          },
          "indices": 59,
          "material": 5,
          "mode": 4
        }
      ]
    },
    {
      "name": "Object_20",
      "primitives": [
        {
          "attributes": {
            "NORMAL": 61,
            "POSITION": 60
          },
          "indices": 62,
          "material": 5,
          "mode": 4
        }
      ]
    },
    {
      "name": "Object_21",
      "primitives": [
        {
          "attributes": {
            "NORMAL": 64,
            "POSITION": 63
          },
          "indices": 65,
          "material": 6,
          "mode": 4
        }
      ]
    },
    {
      "name": "Object_22",
      "primitives": [
        {
          "attributes": {
            "NORMAL": 67,
            "POSITION": 66
          },
          "indices": 68,
          "material": 6,
          "mode": 4
        }
      ]
    },
    {
      "name": "Object_23",
      "primitives": [
        {
          "attributes": {
            "NORMAL": 70,
            "POSITION": 69
          },
          "indices": 71,
          "material": 7,
          "mode": 4
        }
      ]
    },
    {
      "name": "Object_24",
      "primitives": [
        {
          "attributes": {
            "NORMAL": 73,
            "POSITION": 72
          },
          "indices": 74,
          "material": 7,
          "mode": 4
        }
      ]
    },
    {
      "name": "Object_25",
      "primitives": [
        {
          "attributes": {
            "NORMAL": 76,
            "POSITION": 75
          },
          "indices": 77,
          "material": 7,
          "mode": 4
        }
      ]
    },
    {
      "name": "Object_26",
      "primitives": [
        {
          "attributes": {
            "NORMAL": 79,
            "POSITION": 78
          },
          "indices": 80,
          "material": 8,
          "mode": 4
        }
      ]
    },
    {
      "name": "Object_27",
      "primitives": [
        {
          "attributes": {
            "NORMAL": 82,
            "POSITION": 81
          },
          "indices": 83,
          "material": 8,
          "mode": 4
        }
      ]
    },
    {
      "name": "Object_28",
      "primitives": [
        {
          "attributes": {
            "NORMAL": 85,
            "POSITION": 84
          },
          "indices": 86,
          "material": 8,
          "mode": 4
        }
      ]
    },
    {
      "name": "Object_29",
      "primitives": [
        {
          "attributes": {
            "NORMAL": 88,
            "POSITION": 87
          },
          "indices": 89,
          "material": 8,
          "mode": 4
        }
      ]
    },
    {
      "name": "Object_30",
      "primitives": [
        {
          "attributes": {
            "NORMAL": 91,
            "POSITION": 90
          },
          "indices": 92,
          "material": 8,
          "mode": 4
        }
      ]
    },
    {
      "name": "Object_31",
      "primitives": [
        {
          "attributes": {
            "NORMAL": 94,
            "POSITION": 93
          },
          "indices": 95,
          "material": 8,
          "mode": 4
        }
      ]
    },
    {
      "name": "Object_32",
      "primitives": [
        {
          "attributes": {
            "NORMAL": 97,
            "POSITION": 96
          },
          "indices": 98,
          "material": 8,
          "mode": 4
        }
      ]
    },
    {
      "name": "Object_33",
      "primitives": [
        {
          "attributes": {
            "NORMAL": 100,
            "POSITION": 99
          },
          "indices": 101,
          "material": 8,
          "mode": 4
        }
      ]
    },
    {
      "name": "Object_34",
      "primitives": [
        {
          "attributes": {
            "NORMAL": 103,
            "POSITION": 102
          },
          "indices": 104,
          "material": 8,
          "mode": 4
        }
      ]
    },
    {
      "name": "Object_35",
      "primitives": [
        {
          "attributes": {
            "NORMAL": 106,
            "POSITION": 105
          },
          "indices": 107,
          "material": 8,
          "mode": 4
        }
      ]
    },
    {
      "name": "Object_36",
      "primitives": [
        {
          "attributes": {
            "NORMAL": 109,
            "POSITION": 108
          },
          "indices": 110,
          "material": 8,
          "mode": 4
        }
      ]
    },
    {
      "name": "Object_37",
      "primitives": [
        {
          "attributes": {
            "NORMAL": 112,
            "POSITION": 111
          },
          "indices": 113,
          "material": 8,
          "mode": 4
        }
      ]
    },
    {
      "name": "Object_38",
      "primitives": [
        {
          "attributes": {
            "NORMAL": 115,
            "POSITION": 114
          },
          "indices": 116,
          "material": 8,
          "mode": 4
        }
      ]
    },
    {
      "name": "Object_39",
      "primitives": [
        {
          "attributes": {
            "NORMAL": 118,
            "POSITION": 117
          },
          "indices": 119,
          "material": 8,
          "mode": 4
        }
      ]
    },
    {
      "name": "Object_40",
      "primitives": [
        {
          "attributes": {
            "NORMAL": 121,
            "POSITION": 120
          },
          "indices": 122,
          "material": 9,
          "mode": 4
        }
      ]
    },
    {
      "name": "Object_41",
      "primitives": [
        {
          "attributes": {
            "NORMAL": 124,
            "POSITION": 123
          },
          "indices": 125,
          "material": 9,
          "mode": 4
        }
      ]
    },
    {
      "name": "Object_42",
      "primitives": [
        {
          "attributes": {
            "NORMAL": 127,
            "POSITION": 126
          },
          "indices": 128,
          "material": 9,
          "mode": 4
        }
      ]
    },
    {
      "name": "Object_43",
      "primitives": [
        {
          "attributes": {
            "NORMAL": 130,
            "POSITION": 129
          },
          "indices": 131,
          "material": 10,
          "mode": 4
        }
      ]
    },
    {
      "name": "Object_44",
      "primitives": [
        {
          "attributes": {
            "NORMAL": 133,
            "POSITION": 132
          },
          "indices": 134,
          "material": 10,
          "mode": 4
        }
      ]
    },
    {
      "name": "Object_45",
      "primitives": [
        {
          "attributes": {
            "NORMAL": 136,
            "POSITION": 135
          },
          "indices": 137,
          "material": 10,
          "mode": 4
        }
      ]
    },
    {
      "name": "Object_46",
      "primitives": [
        {
          "attributes": {
            "NORMAL": 139,
            "POSITION": 138
          },
          "indices": 140,
          "material": 10,
          "mode": 4
        }
      ]
    },
    {
      "name": "Object_47",
      "primitives": [
        {
          "attributes": {
            "NORMAL": 142,
            "POSITION": 141
          },
          "indices": 143,
          "material": 10,
          "mode": 4
        }
      ]
    },
    {
      "name": "Object_48",
      "primitives": [
        {
          "attributes": {
            "NORMAL": 145,
            "POSITION": 144
          },
          "indices": 146,
          "material": 10,
          "mode": 4
        }
      ]
    },
    {
      "name": "Object_49",
      "primitives": [
        {
          "attributes": {
            "NORMAL": 148,
            "POSITION": 147
          },
          "indices": 149,
          "material": 10,
          "mode": 4
        }
      ]
    },
    {
      "name": "Object_50",
      "primitives": [
        {
          "attributes": {
            "NORMAL": 151,
            "POSITION": 150
          },
          "indices": 152,
          "material": 10,
          "mode": 4
        }
      ]
    },
    {
      "name": "Object_51",
      "primitives": [
        {
          "attributes": {
            "NORMAL": 154,
            "POSITION": 153
          },
          "indices": 155,
          "material": 11,
          "mode": 4
        }
      ]
    },
    {
      "name": "Object_52",
      "primitives": [
        {
          "attributes": {
            "NORMAL": 157,
            "POSITION": 156
          },
          "indices": 158,
          "material": 11,
          "mode": 4
        }
      ]
    },
    {
      "name": "Object_53",
      "primitives": [
        {
          "attributes": {
            "NORMAL": 160,
            "POSITION": 159
          },
          "indices": 161,
          "material": 11,
          "mode": 4
        }
      ]
    },
    {
      "name": "Object_54",
      "primitives": [
        {
          "attributes": {
            "NORMAL": 163,
            "POSITION": 162
          },
          "indices": 164,
          "material": 11,
          "mode": 4
        }
      ]
    },
    {
      "name": "Object_55",
      "primitives": [
        {
          "attributes": {
            "NORMAL": 166,
            "POSITION": 165
          },
          "indices": 167,
          "material": 11,
          "mode": 4
        }
      ]
    },
    {
      "name": "Object_56",
      "primitives": [
        {
          "attributes": {
            "NORMAL": 169,
            "POSITION": 168
          },
          "indices": 170,
          "material": 12,
          "mode": 4
        }
      ]
    },
    {
      "name": "Object_57",
      "primitives": [
        {
          "attributes": {
            "NORMAL": 172,
            "POSITION": 171
          },
          "indices": 173,
          "material": 12,
          "mode": 4
        }
      ]
    },
    {
      "name": "Object_58",
      "primitives": [
        {
          "attributes": {
            "NORMAL": 175,
            "POSITION": 174
          },
          "indices": 176,
          "material": 12,
          "mode": 4
        }
      ]
    },
    {
      "name": "Object_59",
      "primitives": [
        {
          "attributes": {
            "NORMAL": 178,
            "POSITION": 177
          },
          "indices": 179,
          "material": 12,
          "mode": 4
        }
      ]
    },
    {
      "name": "Object_60",
      "primitives": [
        {
          "attributes": {
            "NORMAL": 181,
            "POSITION": 180
          },
          "indices": 182,
          "material": 13,
          "mode": 4
        }
      ]
    },
    {
      "name": "Object_61",
      "primitives": [
        {
          "attributes": {
            "NORMAL": 184,
            "POSITION": 183
          },
          "indices": 185,
          "material": 13,
          "mode": 4
        }
      ]
    },
    {
      "name": "Object_62",
      "primitives": [
        {
          "attributes": {
            "NORMAL": 187,
            "POSITION": 186
          },
          "indices": 188,
          "material": 13,
          "mode": 4
        }
      ]
    },
    {
      "name": "Object_63",
      "primitives": [
        {
          "attributes": {
            "NORMAL": 190,
            "POSITION": 189
          },
          "indices": 191,
          "material": 13,
          "mode": 4
        }
      ]
    },
    {
      "name": "Object_64",
      "primitives": [
        {
          "attributes": {
            "NORMAL": 193,
            "POSITION": 192
          },
          "indices": 194,
          "material": 13,
          "mode": 4
        }
      ]
    },
    {
      "name": "Object_65",
      "primitives": [
        {
          "attributes": {
            "NORMAL": 196,
            "POSITION": 195
          },
          "indices": 197,
          "material": 14,
          "mode": 4
        }
      ]
    },
    {
      "name": "Object_66",
      "primitives": [
        {
          "attributes": {
            "NORMAL": 199,
            "POSITION": 198
          },
          "indices": 200,
          "material": 14,
          "mode": 4
        }
      ]
    },
    {
      "name": "Object_67",
      "primitives": [
        {
          "attributes": {
            "NORMAL": 202,
            "POSITION": 201
          },
          "indices": 203,
          "material": 14,
          "mode": 4
        }
      ]
    }
  ],
  "nodes": [
    {
      "children": [
        1
      ],
      "matrix": [
        0.0024642662688000305,
        -2.1138399527315817e-20,
        7.593766946693142e-05,
        0.0,
        9.403494215576888e-06,
        -0.0024464601631629945,
        -0.00030515437636412116,
        0.0,
        7.53531930869091e-05,
        0.000305299233743272,
        -0.002445299393761105,
        0.0,
        0.0,
        0.0,
        0.0,
        1.0
      ],
      "name": "Sketchfab_model"
    },
    {
      "children": [
        2
      ],
      "name": "root"
    },
    {
      "children": [
        3,
        8,
        13,
        20,
        24,
        27,
        30,
        33,
        37,
        52,
        56,
        65,
        71,
        76,
        82
      ],
      "matrix": [
        1.0,
        0.0,
        0.0,
        0.0,
        0.0,
        2.220446049250313e-16,
        1.0,
        0.0,
        0.0,
        -1.0,
        2.220446049250313e-16,
        0.0,
        0.0,
        0.0,
        0.0,
        1.0
      ],
      "name": "GLTF_SceneRootNode"
    },
    {
      "children": [
        4,
        5,
        6,
        7
      ],
      "matrix": [
        1.0,
        0.0,
        0.0,
        0.0,
        0.0,
        0.0,
        1.0,
        0.0,
        0.0,
        -1.0,
        0.0,
        0.0,
        0.0,
        0.0,
        0.0,
        1.0
      ],
      "name": "bladder_1"
    },
    {
      "mesh": 0,
      "name": "Object_4"
    },
    {
      "mesh": 1,
      "name": "Object_5"
    },
    {
      "mesh": 2,
      "name": "Object_6"
    },
    {
      "mesh": 3,
      "name": "Object_7"
    },
    {
      "children": [
        9,
        10,
        11,
        12
      ],
      "matrix": [
        1.0,
        0.0,
        0.0,
        0.0,
        0.0,
        -1.685873969314855e-07,
        0.9999999999999858,
        0.0,
        0.0,
        -0.9999999999999858,
        -1.685873969314855e-07,
        0.0,
        0.0,
        0.0,
        0.0,
        1.0
      ],
      "name": "cartilage-joints_2"
    },
    {
      "mesh": 4,
      "name": "Object_9"
    },
    {
      "mesh": 5,
      "name": "Object_10"
    },
    {
      "mesh": 6,
      "name": "Object_11"
    },
    {
      "mesh": 7,
      "name": "Object_12"
    },
    {
      "children": [
        14,
        15,
        16,
        17,
        18,
        19
      ],
      "matrix": [
        1.0,
        0.0,
        0.0,
        0.0,
        0.0,
        -1.685873969314855e-07,
        0.9999999999999858,
        0.0,
        0.0,
        -0.9999999999999858,
        -1.685873969314855e-07,
        0.0,
        0.0,
        0.0,
        0.0,
        1.0
      ],
      "name": "femur_3"
    },
    {
      "mesh": 8,
      "name": "Object_14"
    },
    {
      "mesh": 9,
      "name": "Object_15"
    },
    {
      "mesh": 10,
      "name": "Object_16"
    },
    {
      "mesh": 11,
      "name": "Object_17"
    },
    {
      "mesh": 12,
      "name": "Object_18"
    },
    {
      "mesh": 13,
      "name": "Object_19"
    },
    {
      "children": [
        21,
        22,
        23
      ],
      "matrix": [
        1.0,
        0.0,
        0.0,
        0.0,
        0.0,
        -1.685873969314855e-07,
        0.9999999999999858,
        0.0,
        0.0,
        -0.9999999999999858,
        -1.685873969314855e-07,
        0.0,
        0.0,
        0.0,
        0.0,
        1.0
      ],
      "name": "iliac-artery-branches_4"
    },
    {
      "mesh": 14,
      "name": "Object_21"
    },
    {
      "mesh": 15,
      "name": "Object_22"
    },
    {
      "mesh": 16,
      "name": "Object_23"
    },
    {
      "children": [
        25,
        26
      ],
      "matrix": [
        1.0,
        0.0,
        0.0,
        0.0,
        0.0,
        -1.685873969314855e-07,
        0.9999999999999858,
        0.0,
        0.0,
        -0.9999999999999858,
        -1.685873969314855e-07,
        0.0,
        0.0,
        0.0,
        0.0,
        1.0
      ],
      "name": "intevertebral-discs_5"
    },
    {
      "mesh": 17,
      "name": "Object_25"
    },
    {
      "mesh": 18,
      "name": "Object_26"
    },
    {
      "children": [
        28,
        29
      ],
      "matrix": [
        1.0,
        0.0,
        0.0,
        0.0,
        0.0,
        -1.685873969314855e-07,
        0.9999999999999858,
        0.0,
        0.0,
        -0.9999999999999858,
        -1.685873969314855e-07,
        0.0,
        0.0,
        0.0,
        0.0,
        1.0
      ],
      "name": "L3_6"
    },
    {
      "mesh": 19,
      "name": "Object_28"
    },
    {
      "mesh": 20,
      "name": "Object_29"
    },
    {
      "children": [
        31,
        32
      ],
      "matrix": [
        1.0,
        0.0,
        0.0,
        0.0,
        0.0,
        -1.685873969314855e-07,
        0.9999999999999858,
        0.0,
        0.0,
        -0.9999999999999858,
        -1.685873969314855e-07,
        0.0,
        0.0,
        0.0,
        0.0,
        1.0
      ],
      "name": "L4_7"
    },
    {
      "mesh": 21,
      "name": "Object_31"
    },
    {
      "mesh": 22,
      "name": "Object_32"
    },
    {
      "children": [
        34,
        35,
        36
      ],
      "matrix": [
        1.0,
        0.0,
        0.0,
        0.0,
        0.0,
        -1.685873969314855e-07,
        0.9999999999999858,
        0.0,
        0.0,
        -0.9999999999999858,
        -1.685873969314855e-07,
        0.0,
        0.0,
        0.0,
        0.0,
        1.0
      ],
      "name": "L5_8"
    },
    {
      "mesh": 23,
      "name": "Object_34"
    },
    {
      "mesh": 24,
      "name": "Object_35"
    },
    {
      "mesh": 25,
      "name": "Object_36"
    },
    {
      "children": [
        38,
        39,
        40,
        41,
        42,
        43,
        44,
        45,
        46,
        47,
        48,
        49,
        50,
        51
      ],
      "matrix": [
        1.0,
        0.0,
        0.0,
        0.0,
        0.0,
        -1.685873969314855e-07,
        0.9999999999999858,
        0.0,
        0.0,
        -0.9999999999999858,
        -1.685873969314855e-07,
        0.0,
        0.0,
        0.0,
        0.0,
        1.0
      ],
      "name": "lumbosacral-plexus_9"
    },
    {
      "mesh": 26,
      "name": "Object_38"
    },
    {
      "mesh": 27,
      "name": "Object_39"
    },
    {
      "mesh": 28,
      "name": "Object_40"
    },
    {
      "mesh": 29,
      "name": "Object_41"
    },
    {
      "mesh": 30,
      "name": "Object_42"
    },
    {
      "mesh": 31,
      "name": "Object_43"
    },
    {
      "mesh": 32,
      "name": "Object_44"
    },
    {
      "mesh": 33,
      "name": "Object_45"
    },
    {
      "mesh": 34,
      "name": "Object_46"
    },
    {
      "mesh": 35,
      "name": "Object_47"
    },
    {
      "mesh": 36,
      "name": "Object_48"
    },
    {
      "mesh": 37,
      "name": "Object_49"
    },
    {
      "mesh": 38,
      "name": "Object_50"
    },
    {
      "mesh": 39,
      "name": "Object_51"
    },
    {
      "children": [
        53,
        54,
        55
      ],
      "matrix": [
        1.0,
        0.0,
        0.0,
        0.0,
        0.0,
        -1.685873969314855e-07,
        0.9999999999999858,
        0.0,
        0.0,
        -0.9999999999999858,
        -1.685873969314855e-07,
        0.0,
        0.0,
        0.0,
        0.0,
        1.0
      ],
      "name": "ovaries_10"
    },
    {
      "mesh": 40,
      "name": "Object_53"
    },
    {
      "mesh": 41,
      "name": "Object_54"
    },
    {
      "mesh": 42,
      "name": "Object_55"
    },
    {
      "children": [
        57,
        58,
        59,
        60,
        61,
        62,
        63,
        64
      ],
      "matrix": [
        1.0,
        0.0,
        0.0,
        0.0,
        0.0,
        0.0,
        1.0,
        0.0,
        0.0,
        -1.0,
        0.0,
        0.0,
        0.0,
        0.0,
        0.0,
        1.0
      ],
      "name": "pelvis_11"
    },
    {
      "mesh": 43,
      "name": "Object_57"
    },
    {
      "mesh": 44,
      "name": "Object_58"
    },
    {
      "mesh": 45,
      "name": "Object_59"
    },
    {
      "mesh": 46,
      "name": "Object_60"
    },
    {
      "mesh": 47,
      "name": "Object_61"
    },
    {
      "mesh": 48,
      "name": "Object_62"
    },
    {
      "mesh": 49,
      "name": "Object_63"
    },
    {
      "mesh": 50,
      "name": "Object_64"
    },
    {
      "children": [
        66,
        67,
        68,
        69,
        70
      ],
      "matrix": [
        1.0,
        0.0,
        0.0,
        0.0,
        0.0,
        -1.685873969314855e-07,
        0.9999999999999858,
        0.0,
        0.0,
        -0.9999999999999858,
        -1.685873969314855e-07,
        0.0,
        0.0,
        0.0,
        0.0,
        1.0
      ],
      "name": "rectum_12"
    },
    {
      "mesh": 51,
      "name": "Object_66"
    },
    {
      "mesh": 52,
      "name": "Object_67"
    },
    {
      "mesh": 53,
      "name": "Object_68"
    },
    {
      "mesh": 54,
      "name": "Object_69"
    },
    {
      "mesh": 55,
      "name": "Object_70"
    },
    {
      "children": [
        72,
        73,
        74,
        75
      ],
      "matrix": [
        1.0,
        0.0,
        0.0,
        0.0,
        0.0,
        -1.685873969314855e-07,
        0.9999999999999858,
        0.0,
        0.0,
        -0.9999999999999858,
        -1.685873969314855e-07,
        0.0,
        0.0,
        0.0,
        0.0,
        1.0
      ],
      "name": "sacrum_13"
    },
    {
      "mesh": 56,
      "name": "Object_72"
    },
    {
      "mesh": 57,
      "name": "Object_73"
    },
    {
      "mesh": 58,
      "name": "Object_74"
    },
    {
      "mesh": 59,
      "name": "Object_75"
    },
    {
      "children": [
        77,
        78,
        79,
        80,
        81
      ],
      "matrix": [
        1.0,
        0.0,
        0.0,
        0.0,
        0.0,
        -1.685873969314855e-07,
        0.9999999999999858,
        0.0,
        0.0,
        -0.9999999999999858,
        -1.685873969314855e-07,
        0.0,
        0.0,
        0.0,
        0.0,
        1.0
      ],
      "name": "uterus-and-tubes_14"
    },
    {
      "mesh": 60,
      "name": "Object_77"
    },
    {
      "mesh": 61,
      "name": "Object_78"
    },
    {
      "mesh": 62,
      "name": "Object_79"
    },
    {
      "mesh": 63,
      "name": "Object_80"
    },
    {
      "mesh": 64,
      "name": "Object_81"
    },
    {
      "children": [
        83,
        84,
        85
      ],
      "matrix": [
        1.0,
        0.0,
        0.0,
        0.0,
        0.0,
        -1.685873969314855e-07,
        0.9999999999999858,
        0.0,
        0.0,
        -0.9999999999999858,
        -1.685873969314855e-07,
        0.0,
        0.0,
        0.0,
        0.0,
        1.0
      ],
      "name": "vulva_15"
    },
    {
      "mesh": 65,
      "name": "Object_83"
    },
    {
      "mesh": 66,
      "name": "Object_84"
    },
    {
      "mesh": 67,
      "name": "Object_85"
    }
  ],
  "scene": 0,
  "scenes": [
    {
      "name": "Sketchfab_Scene",
      "nodes": [
        0
      ]
    }
  ]
}
